<svg width="1rem" height="1rem" viewBox="0 0 64 64" fill="none" xmlns="http://www.w3.org/2000/svg">
<path fill-rule="evenodd" clip-rule="evenodd" d="M30.9375 3.56722C20.5465 4.62772 11.7327 10.9548 7.13088 20.6577C5.29313 24.5325 4.375 28.6585 4.375 33.0428C4.375 39.6602 6.38075 45.614 10.3825 50.875C11.0936 51.81 11.7122 52.4647 11.7901 52.3651C11.8127 52.3361 12.3072 51.7218 12.8891 51C13.471 50.2781 14.1035 49.4802 14.2946 49.227L14.6421 48.7663L14.025 47.977C11.7271 45.0377 10.0959 41.2977 9.34625 37.25C8.9875 35.3133 8.95787 31.0523 9.2905 29.25C9.85737 26.1776 10.608 23.8627 11.7732 21.5925C13.0115 19.1801 14.3601 17.356 16.3778 15.3645C20.164 11.6273 24.5681 9.36222 29.875 8.42284C31.5822 8.12072 35.9986 8.11559 37.625 8.41397C42.4649 9.30184 46.1117 11.0357 49.9545 14.2757C53.2159 17.0255 55.4081 20.1825 56.9673 24.375C58.1981 27.6845 58.7866 31.6653 58.5009 34.7503C57.8112 42.1986 54.4388 48.3605 48.657 52.7363C44.393 55.9636 39.6609 57.6458 34.3125 57.8357C28.2321 58.0516 21.7135 55.5902 17.2109 51.3782L16.375 50.5962L16.0312 50.8168C15.8421 50.9382 14.9695 51.5395 14.0919 52.153L12.4963 53.2685L12.7759 53.603C13.7525 54.7718 16.8132 57.2285 18.751 58.399C21.7094 60.1858 25.2857 61.515 28.8125 62.138C30.2322 62.3887 30.8558 62.4252 33.75 62.4271C37.4734 62.4293 38.9333 62.2477 41.783 61.4278C50.7095 58.8596 58.0951 51.9856 61.3139 43.25C63.6635 36.8733 63.783 30.2831 61.6652 23.8786C59.5007 17.333 54.6375 11.1535 49 7.78572C45.8045 5.87672 43.3591 4.89284 39.75 4.06397C37.144 3.46547 33.788 3.27634 30.9375 3.56722ZM47.1849 15.5447C46.4438 15.8898 45.8455 16.4557 45.4661 17.1707C45.2496 17.5785 45.1919 17.8983 45.1919 18.6875C45.1919 19.8613 45.4213 20.4021 46.268 21.224C48.3384 23.2335 51.875 21.6863 51.875 18.7712C51.875 18.3286 51.8069 17.735 51.7236 17.452C51.5193 16.757 50.368 15.6057 49.673 15.4013C48.8505 15.1593 47.894 15.2145 47.1849 15.5447ZM47.8751 16.7653C47.1151 17.0685 46.625 17.8221 46.625 18.6875C46.625 20.5231 48.7161 21.4076 49.9575 20.097C50.5126 19.5108 50.692 18.8732 50.4972 18.1778C50.1716 17.0147 48.9288 16.3452 47.8751 16.7653ZM31.0625 17.691C29.4589 17.9885 27.8981 18.4737 26.6612 19.0593C21.966 21.2823 18.6634 25.6135 17.8044 30.6742C17.4927 32.5101 17.6073 35.7287 18.045 37.4375C18.2211 38.125 18.4849 38.9968 18.631 39.375C18.9508 40.2023 19.9134 42.0723 20.2302 42.4815L20.4579 42.7756L21.6978 41.4437C22.3796 40.7112 22.954 40.0652 22.9743 40.0082C22.9944 39.9512 22.8486 39.6293 22.6504 39.293C22.1788 38.4932 21.6806 37.2372 21.4115 36.1691C21.251 35.5323 21.1985 34.8312 21.2071 33.4375C21.217 31.8285 21.2652 31.3888 21.5479 30.338C22.4575 26.9555 24.8764 24.146 28.3125 22.481C30.2721 21.5315 31.1776 21.334 33.625 21.3223C36.0346 21.3108 37.2835 21.5583 38.9543 22.3785L39.9375 22.8611L41.2724 21.5352L42.6073 20.2095L42.3273 19.9892C41.3348 19.2086 38.9456 18.2512 36.875 17.8046C35.54 17.5167 32.3394 17.4541 31.0625 17.691ZM39.6134 24.8437C36.9625 27.5078 33.1946 31.3716 31.2405 33.43C29.2864 35.4883 25.2406 39.6541 22.25 42.6872C15.5724 49.4595 14.7927 50.283 17.1875 48.0337C18.2188 47.0652 19.6563 45.7755 20.3821 45.1676C24.3391 41.8536 25.7712 40.6403 27.8051 38.8793C29.0385 37.8113 30.501 36.5463 31.0551 36.0682C36.4329 31.4276 39.0924 29.0673 41.6875 26.6323C43.533 24.9007 44.2584 24.233 45.3445 23.266L46.3765 22.3471L45.7579 21.7221C45.4177 21.3783 45.0234 20.8502 44.8815 20.5485C44.7398 20.2468 44.5809 20 44.5285 20C44.476 20 42.2643 22.1797 39.6134 24.8437ZM51.4644 21.7782C51.0667 22.1752 50.6589 22.5 50.5581 22.5C50.4097 22.5 50.3751 22.7311 50.3758 23.7187C50.3781 27.6633 51.7586 31.0467 53.7759 32.052C54.5928 32.4591 55.6554 32.4921 56.3606 32.1323C57.6388 31.4802 58.435 29.685 57.75 29C57.2635 28.5135 56.8206 28.7081 56.4362 29.5772C55.8792 30.8368 55.1986 31.1726 54.3128 30.6251C52.7735 29.6738 51.7002 25.544 52.1039 22.125C52.1727 21.5406 52.2199 21.0612 52.2084 21.0596C52.1969 21.058 51.8621 21.3813 51.4644 21.7782ZM31.625 23.5652C28.3677 24.2336 25.5929 26.3378 24.1847 29.2073C23.4844 30.6345 23.2209 31.821 23.2173 33.5625C23.2139 35.2471 23.445 36.3348 24.1226 37.8241L24.5155 38.6875L26.2771 36.875C29.959 33.0871 31.4826 31.5122 32.8698 30.061C33.6576 29.2368 35.23 27.6222 36.3641 26.473L38.4261 24.3836L37.8216 24.1161C36.31 23.4475 33.4415 23.1925 31.625 23.5652ZM45.2094 24.9467L43.7632 26.2756L44.7099 27.3565C45.2305 27.9511 46.1363 29.1687 46.7226 30.0625C48.5666 32.8732 49.1629 33.743 49.5305 34.1587L49.8875 34.5625L49.8283 32.6875C49.7308 29.5953 49.0471 27.461 47.2076 24.5051L46.6554 23.6178L45.2094 24.9467ZM41.8414 28.0783C40.9814 28.9197 40.9649 28.9656 41.3751 29.375C42.1968 30.1947 43.6516 32.0816 45.1823 34.3125C47.3141 37.4197 49.6152 40.059 51.5 41.5586C52.8921 42.6663 54.7779 43.875 55.1141 43.875C55.2532 43.875 56.0582 42.2656 56.1926 41.7187C56.2554 41.4635 56.2306 41.375 56.0967 41.375C55.8215 41.375 53.9204 40.1861 52.9375 39.3992C50.8977 37.7663 49.0215 35.5315 46.397 31.6087C45.0231 29.5552 43.2188 27.3428 42.8681 27.2818C42.7688 27.2646 42.3067 27.623 41.8414 28.0783ZM39.1159 30.6008C38.664 30.9922 37.0401 32.4093 35.5073 33.75C33.9744 35.0906 31.4191 37.3038 29.8289 38.6683C28.2386 40.0328 26.9222 41.1897 26.9035 41.239C26.8489 41.3835 27.8631 42.0597 28.9401 42.5967C30.842 43.5451 32.1317 43.8148 34.2892 43.7156C36.9814 43.5917 39.0714 42.6871 41.2011 40.7241C42.7208 39.3233 44.0048 36.7547 43.9975 35.13C43.9953 34.6336 43.8944 34.4223 43.1927 33.4443C42.2672 32.1545 40.2664 29.8716 40.0705 29.8821C39.9974 29.886 39.5678 30.2095 39.1159 30.6008ZM45.5568 37.7288C44.7298 39.928 42.7859 42.3785 40.8125 43.7095C39.1835 44.8082 37.3179 45.5147 35.2411 45.8193C34.0762 45.9901 33.6486 46.0001 32.6174 45.8801C30.0995 45.5875 27.7659 44.6395 25.9246 43.1616C25.6425 42.9352 25.3757 42.75 25.3316 42.75C25.2876 42.75 24.5814 43.2891 23.7623 43.9481L22.2729 45.1463L22.7302 45.5546C24.9414 47.5288 27.3846 48.7412 30.4659 49.393C32.2395 49.7681 35.265 49.7955 36.875 49.4508C40.1409 48.7517 42.6915 47.4585 44.9168 45.3732C46.4228 43.962 48.5 41.1336 48.5 40.4941C48.5 40.3856 48.3236 40.1315 48.108 39.9296C47.8924 39.7277 47.2795 39.0186 46.7461 38.3538L45.7762 37.1451L45.5568 37.7288Z" fill="#303f9f"/>
</svg>
